<svg xmlns="http://www.w3.org/2000/svg" xmlns:xlink="http://www.w3.org/1999/xlink" version="1.1" width="32" height="32" viewBox="0 0 26 26" xml:space="preserve">
<!-- Created with SVG Stack Editor - https://svgstack.com -->
<defs>
</defs>
<rect x="0" y="0" width="100%" height="100%" fill="transparent"></rect>
<g transform="matrix(0.03 0 0 0.03 13 13)"  >
<g style=""   >
		<g transform="matrix(2 0 0 2 0 0)" id="path_0"  >
<path style="stroke: none; stroke-width: 1; stroke-dasharray: none; stroke-linecap: butt; stroke-dashoffset: 0; stroke-linejoin: miter; stroke-miterlimit: 4; fill: rgb(64,112,118); fill-rule: nonzero; opacity: 1;"  transform=" translate(-256.07, -254.25)" d="M 256.13 124.52 C 280.15 96.687 310.015 78.7146 347.957 78.7335 C 439.508 78.779 488.569 187.816 431.617 256.908 C 428.239 261.006 424.243 264.637 420.492 268.394 L 327.122 361.885 C 307.544 380.913 288.135 400.254 269.105 419.838 C 254.699 434.663 255.244 432.278 239.851 416.78 L 102.024 278.687 C 93.3558 269.959 82.2824 260.253 75.3962 250.202 C 48.4659 210.895 49.3797 154.613 80.9869 117.999 C 104.021 91.3147 128.829 81.2296 162.679 78.7517 L 162.909 78.7549 C 204.851 79.6193 228.846 95.9485 256.13 124.52 Z M 340.177 96.2514 C 321.273 98.8474 304.252 103.893 289.375 116.479 C 279.264 125.033 271.372 135.92 261.537 144.722 C 254.521 151.002 247.57 141.656 243.139 137.022 C 238.446 132.114 233.82 127.075 228.927 122.367 C 189.829 84.7436 125.429 88.5298 92.4039 132.023 C 68.8827 162.999 67.6828 207.053 89.4485 239.169 C 94.503 246.626 100.864 252.519 107.233 258.8 L 188.463 340.05 L 233.597 385.294 C 241.102 392.856 248.87 400.145 256.13 407.951 C 262.426 401.025 269.23 394.581 275.834 387.955 L 371.295 292.331 C 385.27 278.494 413.293 253.279 423.389 237.331 C 463.94 173.273 414.888 90.9687 340.177 96.2514 Z" stroke-linecap="round" />
</g>
</g>
</g>
<g transform="matrix(0.03 0 0 0.03 13 13)"  >
<g style=""   >
		<g transform="matrix(2 0 0 2 0 0)" id="path_0"  >
<path style="stroke: none; stroke-width: 1; stroke-dasharray: none; stroke-linecap: butt; stroke-dashoffset: 0; stroke-linejoin: miter; stroke-miterlimit: 4; fill: rgb(64,112,118); fill-rule: nonzero; opacity: 1;"  transform=" translate(-256.07, -254.25)" d="M 256.13 124.52 C 280.15 96.687 310.015 78.7146 347.957 78.7335 C 439.508 78.779 488.569 187.816 431.617 256.908 C 428.239 261.006 424.243 264.637 420.492 268.394 L 327.122 361.885 C 307.544 380.913 288.135 400.254 269.105 419.838 C 254.699 434.663 255.244 432.278 239.851 416.78 L 102.024 278.687 C 93.3558 269.959 82.2824 260.253 75.3962 250.202 C 48.4659 210.895 49.3797 154.613 80.9869 117.999 C 104.021 91.3147 128.829 81.2296 162.679 78.7517 L 162.909 78.7549 C 204.851 79.6193 228.846 95.9485 256.13 124.52 Z M 340.177 96.2514 C 321.273 98.8474 304.252 103.893 289.375 116.479 C 279.264 125.033 271.372 135.92 261.537 144.722 C 254.521 151.002 247.57 141.656 243.139 137.022 C 238.446 132.114 233.82 127.075 228.927 122.367 C 189.829 84.7436 125.429 88.5298 92.4039 132.023 C 68.8827 162.999 67.6828 207.053 89.4485 239.169 C 94.503 246.626 100.864 252.519 107.233 258.8 L 188.463 340.05 L 233.597 385.294 C 241.102 392.856 248.87 400.145 256.13 407.951 C 262.426 401.025 269.23 394.581 275.834 387.955 L 371.295 292.331 C 385.27 278.494 413.293 253.279 423.389 237.331 C 463.94 173.273 414.888 90.9687 340.177 96.2514 Z" stroke-linecap="round" />
</g>
</g>
</g>
</svg>