<svg xmlns="http://www.w3.org/2000/svg" xmlns:xlink="http://www.w3.org/1999/xlink" version="1.1" width="32" height="32" viewBox="0 0 500 500" xml:space="preserve">
<!-- Created with SVG Stack Editor - https://svgstack.com -->
<defs>
</defs>
<rect x="0" y="0" width="100%" height="100%" fill="transparent"></rect>
<g transform="matrix(0.64 0 0 0.64 250 250)"  >
<g style=""   >
		<g transform="matrix(2 0 0 2 0 0)" id="path_0"  >
<path style="stroke: none; stroke-width: 1; stroke-dasharray: none; stroke-linecap: butt; stroke-dashoffset: 0; stroke-linejoin: miter; stroke-miterlimit: 4; fill: rgb(64,112,118); fill-rule: nonzero; opacity: 1;"  transform=" translate(-255.94, -251.25)" d="M 110.718 241.061 C 103.805 245.245 98.2898 252.416 90.1529 254.314 C 68.7295 259.311 52.454 235.108 64.4366 216.53 C 67.4011 211.934 72.6473 208.959 76.9233 205.73 L 228.276 90.5511 C 235.762 84.7812 243.39 76.8786 252.913 74.8373 C 262.741 73.9265 265.857 76.714 273.058 82.3311 L 341.884 135.017 L 341.884 117.243 C 336.079 117.159 331.844 114.08 331.242 108.065 C 330.846 104.1 330.936 88.0945 331.736 84.617 C 334.32 73.3879 344.46 74.8181 353.252 74.8246 L 392.418 74.8192 C 412.162 74.8104 412.292 78.8492 412.238 99.0649 C 412.212 108.412 413.601 117.123 401.536 117.243 L 401.533 159.58 C 401.534 166.476 401.916 173.552 401.536 180.425 L 402.631 181.231 C 412.5 188.617 440.676 208.953 446.539 216.427 C 457.772 230.743 448.789 252.295 431.015 254.641 C 418.382 256.308 410.77 248.2 401.536 241.061 L 401.528 403.533 C 401.53 409.711 402.034 416.233 401.457 422.366 C 400.723 430.158 383.09 427.322 377.235 427.321 L 340.625 427.306 L 140.671 427.296 C 133.013 427.294 124.514 427.777 116.956 427.253 C 107.494 426.597 110.71 411.406 110.712 404.38 L 110.718 241.061 Z M 255.367 85.3965 C 248.375 87.0216 242.589 93.1222 237.049 97.3847 L 94.0811 206.205 C 88.3057 210.534 82.3511 214.713 76.6791 219.174 C 62.3839 230.416 77.1054 251.459 91.7472 242.297 C 94.1861 240.771 96.365 238.786 98.6646 237.059 L 241.579 127.616 C 245.737 124.474 251.676 117.478 257.455 118.903 C 263.499 121.941 268.745 126.761 274.114 130.827 L 411.949 236.051 C 417.843 240.558 423.733 246.619 431.845 244.158 C 439.047 241.973 442.513 233.504 440.265 226.613 C 438.317 220.645 431.663 216.909 426.943 213.279 L 409.793 200.033 C 397.604 190.469 385.429 180.847 373.056 171.523 L 267.823 91.9116 C 264.493 89.3802 259.934 84.7499 255.367 85.3965 Z M 376.183 85.3965 C 364.758 85.39 353.307 85.2278 341.884 85.3965 L 341.884 106.871 L 367.639 106.871 L 401.536 106.871 C 401.547 99.7538 401.855 92.4961 401.536 85.3965 C 393.097 85.2174 384.626 85.4085 376.183 85.3965 Z M 353.009 117.243 L 353.009 143.394 C 356.506 146.126 389.504 171.413 391.046 171.449 L 391.046 117.243 L 353.009 117.243 Z M 255.367 130.433 C 244.282 139.349 232.926 147.844 221.652 156.512 L 138.946 220.059 C 133.237 224.486 127.552 229.381 121.529 233.341 L 121.529 416.708 L 211.763 416.708 L 211.751 328.914 C 211.734 303.903 216.445 300.967 238.921 300.985 L 258.312 301.005 L 274.858 300.986 C 295.696 300.978 300.643 303.069 300.578 326.851 L 300.548 416.708 L 381.28 416.727 C 384.496 416.736 387.849 416.958 391.046 416.708 L 391.046 233.341 L 281.914 150.438 C 278.13 147.5 258.166 131.367 255.367 130.433 Z M 233.883 311.289 C 219.486 311.721 222.27 318.393 222.269 330.17 L 222.278 416.708 L 278.625 416.708 L 290.336 416.708 L 290.349 328.246 C 290.369 307.308 286.247 311.259 267.771 311.27 L 233.883 311.289 Z" stroke-linecap="round" />
</g>
		<g transform="matrix(2 0 0 2 -0.03 -11.72)" id="path_1"  >
<path style="stroke: none; stroke-width: 1; stroke-dasharray: none; stroke-linecap: butt; stroke-dashoffset: 0; stroke-linejoin: miter; stroke-miterlimit: 4; fill: rgb(64,112,118); fill-rule: nonzero; opacity: 1;"  transform=" translate(-255.92, -245.39)" d="M 195.531 277.763 L 195.531 213.014 L 316.31 213.014 L 316.31 277.763 L 195.531 277.763 Z M 206.205 223.466 L 206.205 267.289 L 250.669 267.289 L 250.66 237.937 C 250.658 233.143 250.409 228.242 250.669 223.466 L 206.205 223.466 Z M 261.484 223.466 L 261.484 267.289 L 305.773 267.289 L 305.773 223.466 L 261.484 223.466 Z" stroke-linecap="round" />
</g>
		<g transform="matrix(2 0 0 2 -38.02 226.81)" id="path_2"  >
<path style="stroke: none; stroke-width: 1; stroke-dasharray: none; stroke-linecap: butt; stroke-dashoffset: 0; stroke-linejoin: miter; stroke-miterlimit: 4; fill: rgb(64,112,118); fill-rule: nonzero; opacity: 1;"  transform=" translate(-236.93, -364.65)" d="M 238.226 379.714 C 235.867 379.942 233.702 379.514 232.534 377.175 C 231.362 374.829 228.722 352.446 235.773 349.546 C 245.26 349.04 242.415 368.827 242.303 376.127 C 241.237 377.934 240.143 378.861 238.226 379.714 Z" stroke-linecap="round" />
</g>
</g>
</g>
<g transform="matrix(0.64 0 0 0.64 250 250)"  >
<g style=""   >
		<g transform="matrix(2 0 0 2 0 0)" id="path_0"  >
<path style="stroke: none; stroke-width: 1; stroke-dasharray: none; stroke-linecap: butt; stroke-dashoffset: 0; stroke-linejoin: miter; stroke-miterlimit: 4; fill: rgb(64,112,118); fill-rule: nonzero; opacity: 1;"  transform=" translate(-255.94, -251.25)" d="M 110.718 241.061 C 103.805 245.245 98.2898 252.416 90.1529 254.314 C 68.7295 259.311 52.454 235.108 64.4366 216.53 C 67.4011 211.934 72.6473 208.959 76.9233 205.73 L 228.276 90.5511 C 235.762 84.7812 243.39 76.8786 252.913 74.8373 C 262.741 73.9265 265.857 76.714 273.058 82.3311 L 341.884 135.017 L 341.884 117.243 C 336.079 117.159 331.844 114.08 331.242 108.065 C 330.846 104.1 330.936 88.0945 331.736 84.617 C 334.32 73.3879 344.46 74.8181 353.252 74.8246 L 392.418 74.8192 C 412.162 74.8104 412.292 78.8492 412.238 99.0649 C 412.212 108.412 413.601 117.123 401.536 117.243 L 401.533 159.58 C 401.534 166.476 401.916 173.552 401.536 180.425 L 402.631 181.231 C 412.5 188.617 440.676 208.953 446.539 216.427 C 457.772 230.743 448.789 252.295 431.015 254.641 C 418.382 256.308 410.77 248.2 401.536 241.061 L 401.528 403.533 C 401.53 409.711 402.034 416.233 401.457 422.366 C 400.723 430.158 383.09 427.322 377.235 427.321 L 340.625 427.306 L 140.671 427.296 C 133.013 427.294 124.514 427.777 116.956 427.253 C 107.494 426.597 110.71 411.406 110.712 404.38 L 110.718 241.061 Z M 255.367 85.3965 C 248.375 87.0216 242.589 93.1222 237.049 97.3847 L 94.0811 206.205 C 88.3057 210.534 82.3511 214.713 76.6791 219.174 C 62.3839 230.416 77.1054 251.459 91.7472 242.297 C 94.1861 240.771 96.365 238.786 98.6646 237.059 L 241.579 127.616 C 245.737 124.474 251.676 117.478 257.455 118.903 C 263.499 121.941 268.745 126.761 274.114 130.827 L 411.949 236.051 C 417.843 240.558 423.733 246.619 431.845 244.158 C 439.047 241.973 442.513 233.504 440.265 226.613 C 438.317 220.645 431.663 216.909 426.943 213.279 L 409.793 200.033 C 397.604 190.469 385.429 180.847 373.056 171.523 L 267.823 91.9116 C 264.493 89.3802 259.934 84.7499 255.367 85.3965 Z M 376.183 85.3965 C 364.758 85.39 353.307 85.2278 341.884 85.3965 L 341.884 106.871 L 367.639 106.871 L 401.536 106.871 C 401.547 99.7538 401.855 92.4961 401.536 85.3965 C 393.097 85.2174 384.626 85.4085 376.183 85.3965 Z M 353.009 117.243 L 353.009 143.394 C 356.506 146.126 389.504 171.413 391.046 171.449 L 391.046 117.243 L 353.009 117.243 Z M 255.367 130.433 C 244.282 139.349 232.926 147.844 221.652 156.512 L 138.946 220.059 C 133.237 224.486 127.552 229.381 121.529 233.341 L 121.529 416.708 L 211.763 416.708 L 211.751 328.914 C 211.734 303.903 216.445 300.967 238.921 300.985 L 258.312 301.005 L 274.858 300.986 C 295.696 300.978 300.643 303.069 300.578 326.851 L 300.548 416.708 L 381.28 416.727 C 384.496 416.736 387.849 416.958 391.046 416.708 L 391.046 233.341 L 281.914 150.438 C 278.13 147.5 258.166 131.367 255.367 130.433 Z M 233.883 311.289 C 219.486 311.721 222.27 318.393 222.269 330.17 L 222.278 416.708 L 278.625 416.708 L 290.336 416.708 L 290.349 328.246 C 290.369 307.308 286.247 311.259 267.771 311.27 L 233.883 311.289 Z" stroke-linecap="round" />
</g>
		<g transform="matrix(2 0 0 2 -0.03 -11.72)" id="path_1"  >
<path style="stroke: none; stroke-width: 1; stroke-dasharray: none; stroke-linecap: butt; stroke-dashoffset: 0; stroke-linejoin: miter; stroke-miterlimit: 4; fill: rgb(64,112,118); fill-rule: nonzero; opacity: 1;"  transform=" translate(-255.92, -245.39)" d="M 195.531 277.763 L 195.531 213.014 L 316.31 213.014 L 316.31 277.763 L 195.531 277.763 Z M 206.205 223.466 L 206.205 267.289 L 250.669 267.289 L 250.66 237.937 C 250.658 233.143 250.409 228.242 250.669 223.466 L 206.205 223.466 Z M 261.484 223.466 L 261.484 267.289 L 305.773 267.289 L 305.773 223.466 L 261.484 223.466 Z" stroke-linecap="round" />
</g>
		<g transform="matrix(2 0 0 2 -38.02 226.81)" id="path_2"  >
<path style="stroke: none; stroke-width: 1; stroke-dasharray: none; stroke-linecap: butt; stroke-dashoffset: 0; stroke-linejoin: miter; stroke-miterlimit: 4; fill: rgb(64,112,118); fill-rule: nonzero; opacity: 1;"  transform=" translate(-236.93, -364.65)" d="M 238.226 379.714 C 235.867 379.942 233.702 379.514 232.534 377.175 C 231.362 374.829 228.722 352.446 235.773 349.546 C 245.26 349.04 242.415 368.827 242.303 376.127 C 241.237 377.934 240.143 378.861 238.226 379.714 Z" stroke-linecap="round" />
</g>
</g>
</g>
</svg>