<svg xmlns="http://www.w3.org/2000/svg" version="1.1" viewBox="229.15 310.35 1095.02 380.8"><path d="M 388.961 312.401 C 235.971 335.764, 175.164 526.214, 285.475 636.525 C 400.861 751.911, 594.674 672.886, 600.690 508 C 604.998 389.946, 502.320 295.091, 388.961 312.401 M 399.948 323.042 C 234.820 337.773, 181.469 560.313, 321.227 651.408 C 423.867 718.309, 561.414 659.477, 585.979 538.166 C 609.866 420.207, 516.825 312.615, 399.948 323.042 M 403.332 395.791 C 390.899 400.232, 383 411.373, 383 424.471 C 383 436.979, 393.414 436.290, 394.978 423.678 C 396.367 412.477, 403.370 406.072, 414.282 406.022 C 438.918 405.909, 443.293 441.626, 419.490 448.546 C 411.863 450.763, 411 452.362, 411 464.266 L 411 474.086 405.250 477.599 C 402.087 479.531, 389.150 487.282, 376.500 494.823 C 293.377 544.380, 288.156 548.822, 297.711 561.864 C 302.484 568.379, 295.147 567.997, 415.500 567.997 C 537.117 567.997, 528.800 568.482, 533.730 561.102 C 542.238 548.366, 534.424 542.105, 438.250 484.597 L 422 474.880 422.033 467.690 L 422.066 460.500 429.262 457 C 465.652 439.300, 441.453 382.176, 403.332 395.791 M 896 494 L 896 552 903.500 552 L 911 552 911 494 L 911 436 903.500 436 L 896 436 896 494 M 689.856 443.258 C 674.378 448.669, 666.798 458.475, 666.867 472.998 C 666.939 487.974, 674.366 494.681, 700.500 503.364 C 719.905 509.812, 725.344 514.327, 725.358 524 C 725.383 541.869, 697.736 546.560, 678.447 531.960 C 670.592 526.015, 671.305 526.079, 666.602 530.895 C 661.854 535.758, 662.255 537.565, 669.330 543.191 C 696.526 564.817, 738.439 554.319, 740.768 525.299 C 742.163 507.926, 733.712 499.474, 705.027 489.556 C 686.544 483.165, 682 479.297, 682 469.954 C 682 455.633, 705.252 450.156, 722.347 460.450 L 727.919 463.805 731.627 459.280 C 735.870 454.102, 735.672 453.164, 729.404 448.751 C 719.064 441.470, 701.821 439.075, 689.856 443.258 M 1024 497.500 L 1024 552 1054 552 L 1084 552 1084 545 L 1084 538 1061.500 538 L 1039 538 1039 490.500 L 1039 443 1031.500 443 L 1024 443 1024 497.500 M 760 461.500 L 760 472 753 472 L 746 472 746 478 L 746 484 752.914 484 L 759.828 484 760.204 510.250 C 760.752 548.489, 766.723 557.194, 789.704 553.258 C 797.473 551.927, 796.660 552.688, 797.490 545.976 L 798.174 540.452 790.579 540.836 C 775.973 541.573, 775 539.494, 775 507.532 L 775 484 786 484 L 797 484 797 478 L 797 472 786 472 L 775 472 775 461.500 L 775 451 767.500 451 L 760 451 760 461.500 M 957.929 470.303 C 930.458 478.098, 919.396 516.580, 937.703 540.666 C 950.412 557.387, 982.988 558.898, 998 543.462 L 1002.500 538.835 998.062 534.978 L 993.625 531.122 990.113 534.205 C 972.897 549.322, 944 538.576, 944 517.057 C 944 515.029, 944.400 515, 972.800 515 C 1005.181 515, 1004 515.283, 1004 507.510 C 1004 481.509, 981.754 463.543, 957.929 470.303 M 1119 470.362 C 1083.632 480.696, 1079.451 535.194, 1112.825 550.840 C 1132.986 560.291, 1173.617 545.642, 1158.715 534.294 L 1154.505 531.088 1151.502 533.987 C 1135.968 548.990, 1108.869 540.284, 1105.631 519.250 L 1104.976 515 1133.788 515 C 1166.026 515, 1165 515.235, 1165 507.849 C 1165 481.378, 1142.910 463.375, 1119 470.362 M 1211.994 469.934 C 1207.420 471.325, 1202.823 474.122, 1198.386 478.212 L 1194 482.255 1193.986 479.377 C 1193.954 472.589, 1193.348 472, 1186.383 472 L 1180 472 1180 512 L 1180 552 1187.500 552 L 1195 552 1195 524.960 C 1195 489.874, 1199.032 482, 1217 482 C 1232.202 482, 1235 488.924, 1235 526.549 L 1235 552 1242.606 552 L 1250.211 552 1249.740 522.250 C 1249.028 477.293, 1238.009 462.021, 1211.994 469.934 M 1285.407 470.345 C 1259.605 476.919, 1258.003 507.778, 1283.077 515.229 C 1286.060 516.115, 1291.733 517.780, 1295.683 518.929 C 1307.873 522.472, 1311.678 527.921, 1307.544 535.915 C 1303.437 543.856, 1287.787 543.908, 1276 536.020 C 1270.138 532.097, 1260.334 537.509, 1263.656 542.834 C 1274.225 559.776, 1314.009 557.486, 1321.583 539.500 C 1328.695 522.610, 1321.351 512.236, 1296.898 504.632 C 1283.761 500.546, 1280 497.846, 1280 492.498 C 1280 481.921, 1294.842 477.957, 1307.888 485.051 L 1313.500 488.102 1316.735 484.301 C 1324.438 475.251, 1303.232 465.805, 1285.407 470.345 M 806.330 472.750 C 806.977 473.832, 833.324 536.227, 836.525 544.258 C 839.631 552.050, 839.459 554.438, 835.141 563.500 C 831.038 572.110, 829.133 573.504, 821.495 573.482 L 815.206 573.465 814.541 579.337 C 813.170 591.457, 835.194 589.299, 844.036 576.448 C 848.079 570.571, 885 476.968, 885 472.594 C 885 472.267, 881.737 472, 877.750 472 L 870.500 472 859.608 503.250 C 847.861 536.954, 847.602 537.552, 846.555 533.323 C 846.170 531.770, 840.639 517.337, 834.264 501.250 L 822.673 472 814.277 472 C 809.660 472, 806.084 472.337, 806.330 472.750 M 960.519 482.598 C 953.649 485.113, 947.527 492.691, 945.450 501.250 L 944.783 504 966.867 504 L 988.950 504 988.393 500.750 C 985.873 486.050, 973.356 477.899, 960.519 482.598 M 1122.137 482.369 C 1114.879 484.996, 1108.533 492.701, 1106.588 501.250 L 1105.962 504 1127.956 504 L 1149.950 504 1149.362 500.750 C 1146.656 485.800, 1134.792 477.789, 1122.137 482.369 M 385 503.368 C 322.461 540.959, 307.500 550.569, 307.500 553.148 L 307.500 555.500 415.641 555.754 C 530.098 556.024, 527.232 556.131, 523.681 551.730 C 521.963 549.601, 417.443 484.937, 415.850 485.018 C 415.657 485.027, 401.775 493.285, 385 503.368" stroke="currentColor" fill="currentColor" fill-rule="evenodd"/></svg>