<svg xmlns="http://www.w3.org/2000/svg" xmlns:xlink="http://www.w3.org/1999/xlink" version="1.1" width="32" height="32" viewBox="0 0 32 32" xml:space="preserve">
<!-- Created with SVG Stack Editor - https://svgstack.com -->
<defs>
</defs>
<rect x="0" y="0" width="100%" height="100%" fill="transparent"></rect>
<g transform="matrix(0.05 0 0 0.05 18 18)"  >
<g style=""   >
		<g transform="matrix(2 0 0 2 0 0)" id="path_0"  >
<path style="stroke: none; stroke-width: 1; stroke-dasharray: none; stroke-linecap: butt; stroke-dashoffset: 0; stroke-linejoin: miter; stroke-miterlimit: 4; fill: rgb(64,112,118); fill-rule: nonzero; opacity: 1;"  transform=" translate(-256.23, -255.64)" d="M 203.368 241.509 C 200.892 239.35 198.381 237.203 196.038 234.897 C 142.179 181.891 180.113 88.8661 252.563 88.0442 C 274.515 84.5759 304.207 99.3125 318.821 115.103 C 348.677 147.362 349.564 197.384 320.419 230.276 C 316.824 234.333 312.709 237.848 308.726 241.509 C 314.1 242.838 319.454 245.123 324.467 247.454 C 375.93 271.388 412.664 324.177 412.831 381.534 C 412.887 400.63 401.331 418.768 382 422.796 C 375.872 424.073 369.406 423.701 363.175 423.697 L 259.937 423.689 L 150.926 423.699 C 129.324 423.698 109.152 421.486 101.306 396.365 C 99.1369 389.422 99.4985 381.805 100.039 374.627 C 104.696 312.753 143.206 260.583 203.368 241.509 Z M 253.429 98.2371 C 188.502 99.0973 155.488 181.672 203.802 228.41 C 218.732 242.853 237.896 249.87 258.576 249.505 L 259.937 249.477 C 302.111 246.48 334.57 210.521 331.594 167.998 C 328.894 129.416 292.827 94.03 253.429 98.2371 Z M 298.268 248.571 C 294.175 250.531 290.241 252.636 285.972 254.219 C 263.957 262.383 234.616 261.796 214.379 248.571 C 206.53 250.939 198.28 253.333 191.135 257.436 C 199.32 268.461 208.202 276.92 219.122 285.195 C 231.043 294.032 245.776 302.22 261.117 300.007 C 281.954 297.001 309.892 274.716 321.377 257.436 C 314.443 254.049 305.886 249.967 298.268 248.571 Z M 181.527 262.411 C 175.992 264.693 170.662 268.56 165.879 272.149 C 131.863 297.678 112.246 335.529 110.061 377.771 C 109.753 383.723 109.318 389.451 111.625 395.104 C 120.153 416.003 138.051 413.817 155.837 413.821 C 163.775 413.822 171.915 414.217 179.833 413.814 C 172.822 381.319 187.019 349.266 216.9 333.522 C 219.86 331.963 225.327 328.446 228.672 330.741 C 237.835 337.025 219.82 343.332 216.86 345.264 C 191.947 361.515 184.557 386.164 189.882 413.814 L 309.482 413.818 C 314.488 413.82 319.552 414 324.549 413.814 C 324.574 396.786 325.129 384.324 316.473 368.732 C 310.459 358.148 302.361 349.725 291.722 343.707 C 287.441 341.286 279.751 339.893 281.473 333.417 C 283.6 325.42 297.047 334.727 300.497 337.063 C 329.347 356.597 334.539 381.148 334.467 413.814 L 358.677 413.825 C 365.751 413.825 374.396 414.611 381.162 412.695 C 394.455 408.931 402.769 395.57 402.711 382.138 C 402.512 336.094 373.315 282.527 330.577 262.411 C 313.551 283.558 288.929 307.427 261.027 310.427 C 219.05 314.94 184.328 263 181.527 262.411 Z" stroke-linecap="round" />
</g>
</g>
</g>
<g transform="matrix(0.05 0 0 0.05 18 18)"  >
<g style=""   >
		<g transform="matrix(2 0 0 2 0 0)" id="path_0"  >
<path style="stroke: none; stroke-width: 1; stroke-dasharray: none; stroke-linecap: butt; stroke-dashoffset: 0; stroke-linejoin: miter; stroke-miterlimit: 4; fill: rgb(64,112,118); fill-rule: nonzero; opacity: 1;"  transform=" translate(-256.23, -255.64)" d="M 203.368 241.509 C 200.892 239.35 198.381 237.203 196.038 234.897 C 142.179 181.891 180.113 88.8661 252.563 88.0442 C 274.515 84.5759 304.207 99.3125 318.821 115.103 C 348.677 147.362 349.564 197.384 320.419 230.276 C 316.824 234.333 312.709 237.848 308.726 241.509 C 314.1 242.838 319.454 245.123 324.467 247.454 C 375.93 271.388 412.664 324.177 412.831 381.534 C 412.887 400.63 401.331 418.768 382 422.796 C 375.872 424.073 369.406 423.701 363.175 423.697 L 259.937 423.689 L 150.926 423.699 C 129.324 423.698 109.152 421.486 101.306 396.365 C 99.1369 389.422 99.4985 381.805 100.039 374.627 C 104.696 312.753 143.206 260.583 203.368 241.509 Z M 253.429 98.2371 C 188.502 99.0973 155.488 181.672 203.802 228.41 C 218.732 242.853 237.896 249.87 258.576 249.505 L 259.937 249.477 C 302.111 246.48 334.57 210.521 331.594 167.998 C 328.894 129.416 292.827 94.03 253.429 98.2371 Z M 298.268 248.571 C 294.175 250.531 290.241 252.636 285.972 254.219 C 263.957 262.383 234.616 261.796 214.379 248.571 C 206.53 250.939 198.28 253.333 191.135 257.436 C 199.32 268.461 208.202 276.92 219.122 285.195 C 231.043 294.032 245.776 302.22 261.117 300.007 C 281.954 297.001 309.892 274.716 321.377 257.436 C 314.443 254.049 305.886 249.967 298.268 248.571 Z M 181.527 262.411 C 175.992 264.693 170.662 268.56 165.879 272.149 C 131.863 297.678 112.246 335.529 110.061 377.771 C 109.753 383.723 109.318 389.451 111.625 395.104 C 120.153 416.003 138.051 413.817 155.837 413.821 C 163.775 413.822 171.915 414.217 179.833 413.814 C 172.822 381.319 187.019 349.266 216.9 333.522 C 219.86 331.963 225.327 328.446 228.672 330.741 C 237.835 337.025 219.82 343.332 216.86 345.264 C 191.947 361.515 184.557 386.164 189.882 413.814 L 309.482 413.818 C 314.488 413.82 319.552 414 324.549 413.814 C 324.574 396.786 325.129 384.324 316.473 368.732 C 310.459 358.148 302.361 349.725 291.722 343.707 C 287.441 341.286 279.751 339.893 281.473 333.417 C 283.6 325.42 297.047 334.727 300.497 337.063 C 329.347 356.597 334.539 381.148 334.467 413.814 L 358.677 413.825 C 365.751 413.825 374.396 414.611 381.162 412.695 C 394.455 408.931 402.769 395.57 402.711 382.138 C 402.512 336.094 373.315 282.527 330.577 262.411 C 313.551 283.558 288.929 307.427 261.027 310.427 C 219.05 314.94 184.328 263 181.527 262.411 Z" stroke-linecap="round" />
</g>
</g>
</g>
</svg>